<?xml version="1.0" encoding="utf-8"?>
<!-- Generator: Adobe Illustrator 19.0.0, SVG Export Plug-In . SVG Version: 6.00 Build 0)  -->
<svg version="1.1" id="Capa_1" xmlns="http://www.w3.org/2000/svg" xmlns:xlink="http://www.w3.org/1999/xlink" x="0px" y="0px"
	 viewBox="0 0 96 96" style="enable-background:new 0 0 96 96;" xml:space="preserve">
<style type="text/css">
	.st0{fill:#FFFFFF;}
</style>
<g>
	<g>
		<path class="st0" d="M35.8,83.9c-0.1-0.4-0.2-0.7-0.3-1L33,81.6l-1.6-0.8c-0.2,0-0.4,0.1-0.6,0.2c-1,0.3-2.5,1.3-3.6,3.7
			c-0.9,1.9-0.5,3.5-0.1,4.9c0.4,1.3,0.7,2.4-0.2,3.5c-0.1,0.1-0.1,0.3-0.1,0.4c0,0.1,0.1,0.1,0.2,0.2c0,0,0.1,0,0.1,0
			c2.3,0.2,5.7-1.3,7.6-5.1c0.1-0.1,0.1-0.3,0.2-0.4C35.7,86.6,36,85.1,35.8,83.9z M31.6,83.3c-0.1,0.2-0.2,0.3-0.4,0.4
			c-1.3,0.7-1.5,1.7-1.5,1.8c0,0.3-0.2,0.5-0.5,0.6c0,0-0.1,0-0.1,0c-0.1,0-0.2,0-0.3,0c-0.4-0.1-0.7-0.4-0.6-0.8
			c0-0.1,0.3-1.9,2.3-2.9c0,0,0.1,0,0.1-0.1c0.4-0.1,0.7,0.1,0.9,0.4C31.7,82.9,31.7,83.1,31.6,83.3z"/>
		<path class="st0" d="M66.3,44.5c-1-2.9-3.1-7-6.1-12.3c2.2-4.3,3.6-7.3,4.1-9.2c1-3.7,1.5-6.9,1.4-9.4c0-3.3-0.9-6.4-2.5-9.3
			c-0.7-1.2-1.3-1.8-2.1-2c-2.1-0.5-4.3,1.2-6.9,5.3c-1.9,3-3.1,5.7-3.7,8.1c-1,4-1.3,8-0.9,11.9c0.5,4,1.7,7.6,3.6,10.8l-1.8,3.6
			c0,0,0,0,0,0c-2.9-1.7-6.7-2.5-10.1-2.1c-6.9,0.7-10.8,4.5-12.8,7.6c-2.4,3.7-3.6,8.5-3.1,13.1c0.4,4.4,2.5,7.9,6.1,10.1
			c1.3,0.8,2.7,1.4,4.3,1.8c-1.7,2.7-2.1,3.1-2.5,3.9c-0.5,0.9-0.9,2.3-1.3,3.5l1.3,0.7l2.7,1.5c0.4-0.5,0.8-1.1,1.2-1.6
			c0.4-0.5,0.7-1.1,0.9-1.5c0.5-0.9,1-2.4,2.5-5.8c1.6,0.3,8.4,1.9,15.6-1.1c5.3-2.1,9-8.5,10.3-13.3C67.5,54.5,68.2,49.7,66.3,44.5
			z M54.9,14.3c0.7-2.8,1.9-2.9,3-2.6c0.2,0.1,0.4,0.2,0.6,0.3c0.7,0.5,1.6,1.9,1.7,5.7c0.1,3-0.2,5.7-0.8,8.1
			c-0.3,1.3-0.8,2.4-1.4,3.2c-1.3-1.9-2.3-4.1-2.9-6.6C54.4,19.4,54.3,16.6,54.9,14.3z M59.9,60.5c-0.8,3.1-3.4,6.3-6.8,7.6
			c-3,1.2-6.9,1.4-10.8,1.2c-0.2,0-0.5,0-0.7,0c-1.3-0.1-2.4-0.3-3.4-0.7c-1.4-0.5-2.6-1.2-3.7-2c0,0-0.1-0.1-0.1-0.1
			c-1.8-1.4-2.9-3.6-3.2-6.3c-0.9-9.3,4.5-14.8,10.3-15.4c0.9-0.1,1.7-0.1,2.5,0c1.8,0.2,3.4,0.8,4.7,1.8c1.9,1.4,3,3.6,3.3,6.2
			c0.1,1,0.1,2.7-0.4,4.1c-0.2,0.7-0.5,1.2-0.8,1.6c-0.4,0.5-1,0.8-1.6,0.9c-0.7,0.1-0.9-0.1-1-0.7c0-0.4,0-1.2,0.1-1.7
			c0-0.1,0-0.1,0-0.2c0-0.1,0-0.3,0-0.4l0.7-6.9l0.1-1.1l-1.1,0.1c-0.6,0.1-1.2,0.1-1.8,0.2c-6.4,0.7-8.7,2.1-10.3,4
			c-1.7,2.2-2.7,5.5-2.5,8.1c0.3,2.7,2.6,4.5,5.7,4.4c0.2,0,0.5,0,0.7,0c0.1,0,0.2,0,0.4-0.1c0,0,0.1,0,0.1,0c1-0.1,1.8-0.4,2.4-0.7
			c0.7-0.3,1.3-0.8,2-1.3c0.1,0.1,0.2,0.2,0.4,0.2c1.1,0.6,2,1,3.7,0.9c0.2,0,0.5,0,0.8-0.1c3.1-0.3,5.4-2,6.9-4.8
			c0.4-0.9,0.8-1.8,1-2.8c0.3-1.5,0.5-3.1,0.3-4.6c-0.3-3.4-1.7-5.9-3.4-7.5l1.1-2.4C60.5,49.7,61.4,54.7,59.9,60.5z M42.8,53.8
			c0,0.1,0,0.2-0.1,0.4c-0.7,4.8-2.1,6-3.1,6.1c-0.2,0-0.5,0-0.5-0.4c-0.1-0.7,0.1-1.6,0.4-2.5c0,0,0,0,0,0c0.3-0.9,0.8-1.8,1.3-2.5
			C41.3,54.3,42,54,42.8,53.8z"/>
		<path class="st0" d="M26,87.6c-0.3-0.1-0.7-0.2-1-0.2c-0.1,0-0.1,0-0.2,0c-0.5,0-1.1,0.2-1.7,0.3c-0.5,0.1-1.1,0.2-1.4,0.2
			c-0.3,0-0.3,0-0.4-0.1c-0.3-0.4,0.1-1.4,0.2-1.9c0-0.1,0.1-0.2,0.1-0.3c0.3-0.9,0.4-1.9,0-2.8c-0.4-0.7-1.2-1.3-2.2-1.4
			c-0.3-0.1-0.6-0.1-1-0.1c-0.3,0-0.7,0-1,0.1c-0.3,0-0.7,0.1-1,0.1c-1.2,0.1-1.8-0.2-2.3-0.8c-0.8-1.2,0-3.3,0.9-4.3
			c0.1-0.1,0.1-0.1,0-0.2c-0.1-0.1-0.1-0.1-0.2,0c-1.1,0.9-1.9,2.5-1.7,3.9c0.1,0.7,0.4,1.7,1.6,2.4c0.6,0.3,1.7,0.4,2.6,0.4
			c1,0,2,0.1,2.3,0.4c0.1,0.1,0.1,0.2,0.1,0.4c0,0.7-0.3,1.4-0.6,2c-0.6,1.3-1.1,2.5,0,3.9c1,1.2,2.3,1.1,3.6,1.1c0.1,0,0.2,0,0.3,0
			c0.6,0,1.2,0,1.8,0.1c0.4,0.1,0.7,0.5,0.8,1.1c0.1,0.4,0.3,0.7,0.5,1c0-0.2,0.1-0.4,0.2-0.5c0.6-0.8,0.4-1.5,0.1-2.8
			C26.2,89.1,26,88.4,26,87.6z"/>
	</g>
</g>
</svg>
